<?xml version="1.0" encoding="utf-8" standalone="no"?>
<!DOCTYPE svg PUBLIC "-//W3C//DTD SVG 1.1//EN"
  "http://www.w3.org/Graphics/SVG/1.1/DTD/svg11.dtd">
<!-- Created with matplotlib (http://matplotlib.org/) -->
<svg height="360pt" version="1.1" viewBox="0 0 720 360" width="720pt" xmlns="http://www.w3.org/2000/svg" xmlns:xlink="http://www.w3.org/1999/xlink">
 <defs>
  <style type="text/css">
*{stroke-linecap:butt;stroke-linejoin:round;}
  </style>
 </defs>
 <g id="figure_1">
  <g id="patch_1">
   <path d="
M0 360
L720 360
L720 0
L0 0
z
" style="fill:#ffffff;"/>
  </g>
  <g id="axes_1">
   <g id="patch_2">
    <path d="
M90 302.318
L343.636 302.318
L343.636 48.6818
L90 48.6818
z
" style="fill:#ffffff;"/>
   </g>
   <g id="line2d_1">
    <path clip-path="url(#p327466bd2e)" d="
M190.132 148.814
L192.678 146.294
L195.248 143.804
L200.449 138.921
L205.716 134.184
L211.028 129.612
L216.362 125.222
L221.698 121.033
L227.015 117.061
L232.291 113.322
L237.505 109.831
L242.637 106.601
L247.666 103.646
L252.572 100.978
L257.335 98.6068
L261.937 96.542
L266.359 94.792
L270.584 93.3637
L274.594 92.2629
L278.374 91.4938
L281.909 91.0596
L285.184 90.962
L288.187 91.2014
L290.905 91.7769
L293.327 92.6861
L295.445 93.9254
L296.387 94.6673
L297.25 95.4899
L298.032 96.3921
L298.733 97.3733
L299.891 99.5682
L300.717 102.066
L301.208 104.856
L301.363 107.928
L301.182 111.269
L300.663 114.866
L299.811 118.705
L298.628 122.771
L297.119 127.046
L295.289 131.515
L293.147 136.159
L290.7 140.96
L287.959 145.899
L284.935 150.955
L281.639 156.11
L278.084 161.342
L274.285 166.63
L270.258 171.953
L266.017 177.291
L261.58 182.621
L256.964 187.924
L252.189 193.176
L247.273 198.358
L242.235 203.449
L237.096 208.429
L231.876 213.277
L226.596 217.975
L221.277 222.504
L215.94 226.845
L210.607 230.981
L205.298 234.896
L200.036 238.575
L194.84 242.002
L189.732 245.164
L184.732 248.048
L179.86 250.643
L175.135 252.938
L170.576 254.925
L166.202 256.595
L162.029 257.942
L158.075 258.961
L154.355 259.646
L150.884 259.996
L147.676 260.01
L144.743 259.686
L142.098 259.027
L139.75 258.035
L137.71 256.714
L136.808 255.931
L135.986 255.069
L135.244 254.127
L134.004 252.009
L133.095 249.587
L132.52 246.868
L132.28 243.866
L132.378 240.591
L132.812 237.056
L133.581 233.276
L134.682 229.266
L136.11 225.041
L137.86 220.619
L139.925 216.017
L142.296 211.254
L144.965 206.348
L147.919 201.319
L151.149 196.187
L154.64 190.972
L158.379 185.696
L162.351 180.38
L166.54 175.044
L170.93 169.709
L175.502 164.398
L180.24 159.131
L185.123 153.929
L190.132 148.814
L190.132 148.814" style="fill:none;stroke:#0000ff;stroke-linecap:square;stroke-width:4;"/>
   </g>
   <g id="line2d_2">
    <path clip-path="url(#p327466bd2e)" d="
M216.818 175.5" style="fill:none;stroke:#0000ff;stroke-linecap:square;stroke-width:4;"/>
    <defs>
     <path d="
M-2 2
L2 -2
M-2 -2
L2 2" id="mf17e2e6b86" style="stroke:#0000ff;stroke-width:0.5;"/>
    </defs>
    <g clip-path="url(#p327466bd2e)">
     <use style="fill:#0000ff;stroke:#0000ff;stroke-width:0.5;" x="216.818181818" xlink:href="#mf17e2e6b86" y="175.5"/>
    </g>
   </g>
   <g id="line2d_3">
    <path clip-path="url(#p327466bd2e)" d="
M90 175.5
L343.636 175.5" style="fill:none;stroke:#000000;stroke-linecap:square;"/>
   </g>
   <g id="line2d_4">
    <path clip-path="url(#p327466bd2e)" d="
M216.818 302.318
L216.818 48.6818" style="fill:none;stroke:#000000;stroke-linecap:square;"/>
   </g>
   <g id="line2d_5">
    <path clip-path="url(#p327466bd2e)" d="
M90 125.136
L343.636 125.136" style="fill:none;stroke:#00ff00;stroke-linecap:square;stroke-width:4;"/>
   </g>
   <g id="line2d_6">
    <path clip-path="url(#p327466bd2e)" d="
M90 124.893
L104.02 124.553
L114.217 124.086
L123.138 123.437
L130.786 122.631
L137.159 121.734
L143.531 120.589
L148.63 119.466
L153.728 118.137
L158.826 116.583
L163.924 114.789
L169.022 112.746
L174.121 110.448
L179.219 107.9
L184.317 105.114
L190.69 101.332
L197.063 97.2798
L207.259 90.4738
L217.455 83.7183
L223.828 79.786
L228.926 76.9257
L232.75 74.9973
L236.574 73.2882
L240.397 71.8255
L244.221 70.6331
L248.045 69.7308
L251.868 69.1338
L255.692 68.852
L259.516 68.8903
L263.339 69.2482
L267.163 69.9194
L270.987 70.8926
L274.81 72.1515
L278.634 73.6754
L282.458 75.4396
L286.281 77.4161
L291.38 80.3288
L297.752 84.3069
L306.674 90.2311
L319.42 98.697
L325.793 102.666
L332.165 106.339
L337.264 109.024
L342.362 111.466
L343.636 112.037
L343.636 112.037" style="fill:none;stroke:#ff0000;stroke-linecap:square;stroke-width:4;"/>
   </g>
   <g id="line2d_7">
    <path clip-path="url(#p327466bd2e)" d="
M263.481 125.136" style="fill:none;stroke:#00ff00;stroke-linecap:square;stroke-width:10;"/>
    <defs>
     <path d="
M0 5
C1.32602 5 2.5979 4.47317 3.53553 3.53553
C4.47317 2.5979 5 1.32602 5 0
C5 -1.32602 4.47317 -2.5979 3.53553 -3.53553
C2.5979 -4.47317 1.32602 -5 0 -5
C-1.32602 -5 -2.5979 -4.47317 -3.53553 -3.53553
C-4.47317 -2.5979 -5 -1.32602 -5 0
C-5 1.32602 -4.47317 2.5979 -3.53553 3.53553
C-2.5979 4.47317 -1.32602 5 0 5
z
" id="m7813ac0a1d" style="stroke:#000000;stroke-width:0.5;"/>
    </defs>
    <g clip-path="url(#p327466bd2e)">
     <use style="fill:#00ff00;stroke:#000000;stroke-width:0.5;" x="263.481115539" xlink:href="#m7813ac0a1d" y="125.135755948"/>
    </g>
   </g>
   <g id="patch_3">
    <path d="
M90 302.318
L343.636 302.318" style="fill:none;stroke:#000000;stroke-linecap:square;stroke-linejoin:miter;"/>
   </g>
   <g id="patch_4">
    <path d="
M90 302.318
L90 48.6818" style="fill:none;stroke:#000000;stroke-linecap:square;stroke-linejoin:miter;"/>
   </g>
   <g id="patch_5">
    <path d="
M343.636 302.318
L343.636 48.6818" style="fill:none;stroke:#000000;stroke-linecap:square;stroke-linejoin:miter;"/>
   </g>
   <g id="patch_6">
    <path d="
M90 48.6818
L343.636 48.6818" style="fill:none;stroke:#000000;stroke-linecap:square;stroke-linejoin:miter;"/>
   </g>
   <g id="matplotlib.axis_1">
    <g id="xtick_1">
     <g id="line2d_8">
      <defs>
       <path d="
M0 0
L0 -4" id="mc7db9fdffb" style="stroke:#000000;stroke-width:0.5;"/>
      </defs>
      <g>
       <use style="stroke:#000000;stroke-width:0.5;" x="132.272727273" xlink:href="#mc7db9fdffb" y="302.318181818"/>
      </g>
     </g>
     <g id="line2d_9">
      <defs>
       <path d="
M0 0
L0 4" id="m5a7d422ac3" style="stroke:#000000;stroke-width:0.5;"/>
      </defs>
      <g>
       <use style="stroke:#000000;stroke-width:0.5;" x="132.272727273" xlink:href="#m5a7d422ac3" y="48.6818181818"/>
      </g>
     </g>
     <g id="text_1">
      <!-- −1 -->
      <defs>
       <path d="
M10.5938 35.5
L73.1875 35.5
L73.1875 27.2031
L10.5938 27.2031
z
" id="BitstreamVeraSans-Roman-2212"/>
       <path d="
M12.4062 8.29688
L28.5156 8.29688
L28.5156 63.9219
L10.9844 60.4062
L10.9844 69.3906
L28.4219 72.9062
L38.2812 72.9062
L38.2812 8.29688
L54.3906 8.29688
L54.3906 0
L12.4062 0
z
" id="BitstreamVeraSans-Roman-31"/>
      </defs>
      <g transform="translate(125.893039773 313.916619318)scale(0.1 -0.1)">
       <use xlink:href="#BitstreamVeraSans-Roman-2212"/>
       <use x="83.7890625" xlink:href="#BitstreamVeraSans-Roman-31"/>
      </g>
     </g>
    </g>
    <g id="xtick_2">
     <g id="line2d_10">
      <g>
       <use style="stroke:#000000;stroke-width:0.5;" x="216.818181818" xlink:href="#mc7db9fdffb" y="302.318181818"/>
      </g>
     </g>
     <g id="line2d_11">
      <g>
       <use style="stroke:#000000;stroke-width:0.5;" x="216.818181818" xlink:href="#m5a7d422ac3" y="48.6818181818"/>
      </g>
     </g>
     <g id="text_2">
      <!-- 0 -->
      <defs>
       <path d="
M31.7812 66.4062
Q24.1719 66.4062 20.3281 58.9062
Q16.5 51.4219 16.5 36.375
Q16.5 21.3906 20.3281 13.8906
Q24.1719 6.39062 31.7812 6.39062
Q39.4531 6.39062 43.2812 13.8906
Q47.125 21.3906 47.125 36.375
Q47.125 51.4219 43.2812 58.9062
Q39.4531 66.4062 31.7812 66.4062
M31.7812 74.2188
Q44.0469 74.2188 50.5156 64.5156
Q56.9844 54.8281 56.9844 36.375
Q56.9844 17.9688 50.5156 8.26562
Q44.0469 -1.42188 31.7812 -1.42188
Q19.5312 -1.42188 13.0625 8.26562
Q6.59375 17.9688 6.59375 36.375
Q6.59375 54.8281 13.0625 64.5156
Q19.5312 74.2188 31.7812 74.2188" id="BitstreamVeraSans-Roman-30"/>
      </defs>
      <g transform="translate(214.298650568 313.916619318)scale(0.1 -0.1)">
       <use xlink:href="#BitstreamVeraSans-Roman-30"/>
      </g>
     </g>
    </g>
    <g id="xtick_3">
     <g id="line2d_12">
      <g>
       <use style="stroke:#000000;stroke-width:0.5;" x="301.363636364" xlink:href="#mc7db9fdffb" y="302.318181818"/>
      </g>
     </g>
     <g id="line2d_13">
      <g>
       <use style="stroke:#000000;stroke-width:0.5;" x="301.363636364" xlink:href="#m5a7d422ac3" y="48.6818181818"/>
      </g>
     </g>
     <g id="text_3">
      <!-- 1 -->
      <g transform="translate(299.193323864 313.916619318)scale(0.1 -0.1)">
       <use xlink:href="#BitstreamVeraSans-Roman-31"/>
      </g>
     </g>
    </g>
    <g id="text_4">
     <!-- $f_{5}$ -->
     <defs>
      <path d="
M8.6875 11.375
Q9.71875 8.45312 11.8438 6.04688
Q13.9688 3.65625 16.875 2.3125
Q19.7812 0.984375 22.9062 0.984375
Q30.125 0.984375 32.8594 6.59375
Q35.5938 12.2031 35.5938 20.2188
Q35.5938 23.6875 35.4688 26.0469
Q35.3594 28.4219 34.8125 30.6094
Q33.8906 34.125 31.5625 36.7656
Q29.25 39.4062 25.875 39.4062
Q22.5156 39.4062 20.0938 38.375
Q17.6719 37.3594 16.1562 35.9844
Q14.6562 34.625 13.4844 33.1094
Q12.3125 31.5938 12.0156 31.5
L10.8906 31.5
Q10.6406 31.5 10.2656 31.8125
Q9.90625 32.125 9.90625 32.4219
L9.90625 65.8281
Q9.90625 66.0625 10.2188 66.3281
Q10.5469 66.6094 10.8906 66.6094
L11.1875 66.6094
Q17.9219 63.375 25.4844 63.375
Q32.9062 63.375 39.7969 66.6094
L40.0938 66.6094
Q40.4375 66.6094 40.7188 66.3594
Q41.0156 66.1094 41.0156 65.8281
L41.0156 64.8906
Q41.0156 64.4062 40.8281 64.4062
Q37.4062 59.8594 32.25 57.3125
Q27.0938 54.7812 21.5781 54.7812
Q17.5781 54.7812 13.375 55.9062
L13.375 37.0156
Q16.7031 39.7031 19.3125 40.8438
Q21.9219 42 25.9844 42
Q31.5 42 35.8594 38.8125
Q40.2344 35.6406 42.5781 30.5312
Q44.9219 25.4375 44.9219 20.125
Q44.9219 14.1094 41.9688 8.98438
Q39.0156 3.85938 33.9375 0.828125
Q28.8594 -2.20312 22.9062 -2.20312
Q17.9688 -2.20312 13.8438 0.328125
Q9.71875 2.875 7.34375 7.17188
Q4.98438 11.4688 4.98438 16.3125
Q4.98438 18.5625 6.4375 19.9688
Q7.90625 21.3906 10.1094 21.3906
Q12.3125 21.3906 13.7969 19.9375
Q15.2812 18.5 15.2812 16.3125
Q15.2812 14.1562 13.7969 12.6719
Q12.3125 11.1875 10.1094 11.1875
Q9.76562 11.1875 9.32812 11.25
Q8.89062 11.3281 8.6875 11.375" id="Cmr10-35"/>
      <path d="
M9.71875 -16.5
Q11.5781 -17.9219 14.2031 -17.9219
Q17.7812 -17.9219 20.0156 -10.0156
Q20.9531 -6.20312 25.0938 15.0938
L29.6875 39.5938
L21.0938 39.5938
Q20.125 39.5938 20.125 40.9219
Q20.5156 43.1094 21.3906 43.1094
L30.3281 43.1094
L31.5 49.6094
Q32.0781 52.6406 32.5625 54.8125
Q33.0625 56.9844 33.625 58.8281
Q34.1875 60.6875 35.2969 62.9844
Q37.0156 66.2656 39.9219 68.3906
Q42.8281 70.5156 46.1875 70.5156
Q48.3906 70.5156 50.4688 69.7031
Q52.5469 68.8906 53.8594 67.2812
Q55.1719 65.6719 55.1719 63.4844
Q55.1719 60.9375 53.4844 59.0469
Q51.8125 57.1719 49.4219 57.1719
Q47.7969 57.1719 46.6562 58.1719
Q45.5156 59.1875 45.5156 60.7969
Q45.5156 62.9844 47 64.625
Q48.4844 66.2656 50.6875 66.5
Q48.8281 67.9219 46.0938 67.9219
Q44.5781 67.9219 43.2344 66.5
Q41.8906 65.0938 41.5 63.4844
Q40.875 60.9375 38.7188 49.7031
L37.5 43.1094
L47.7969 43.1094
Q48.7812 43.1094 48.7812 41.7969
Q48.7344 41.5469 48.5781 40.9375
Q48.4375 40.3281 48.1719 39.9531
Q47.9062 39.5938 47.5156 39.5938
L36.8125 39.5938
L32.1719 15.1875
Q31.2969 9.85938 30.1406 4.35938
Q29 -1.125 26.9219 -6.90625
Q24.8594 -12.7031 21.625 -16.6094
Q18.4062 -20.5156 14.0156 -20.5156
Q10.6406 -20.5156 7.98438 -18.5781
Q5.32812 -16.6562 5.32812 -13.4844
Q5.32812 -10.9375 6.95312 -9.04688
Q8.59375 -7.17188 11.0781 -7.17188
Q12.75 -7.17188 13.8594 -8.17188
Q14.9844 -9.1875 14.9844 -10.7969
Q14.9844 -12.9375 13.3906 -14.7188
Q11.8125 -16.5 9.71875 -16.5" id="Cmmi10-66"/>
     </defs>
     <g transform="translate(208.418181818 335.196306818)scale(0.2 -0.2)">
      <use transform="translate(0.0 0.484375)" xlink:href="#Cmmi10-66"/>
      <use transform="translate(48.876953125 -25.025000000000006)scale(0.7)" xlink:href="#Cmr10-35"/>
     </g>
    </g>
   </g>
   <g id="matplotlib.axis_2">
    <g id="ytick_1">
     <g id="line2d_14">
      <defs>
       <path d="
M0 0
L4 0" id="md7965d1ba0" style="stroke:#000000;stroke-width:0.5;"/>
      </defs>
      <g>
       <use style="stroke:#000000;stroke-width:0.5;" x="90.0" xlink:href="#md7965d1ba0" y="260.045454545"/>
      </g>
     </g>
     <g id="line2d_15">
      <defs>
       <path d="
M0 0
L-4 0" id="md9a1c1a7cd" style="stroke:#000000;stroke-width:0.5;"/>
      </defs>
      <g>
       <use style="stroke:#000000;stroke-width:0.5;" x="343.636363636" xlink:href="#md9a1c1a7cd" y="260.045454545"/>
      </g>
     </g>
     <g id="text_5">
      <!-- −1 -->
      <g transform="translate(73.240625 262.804829545)scale(0.1 -0.1)">
       <use xlink:href="#BitstreamVeraSans-Roman-2212"/>
       <use x="83.7890625" xlink:href="#BitstreamVeraSans-Roman-31"/>
      </g>
     </g>
    </g>
    <g id="ytick_2">
     <g id="line2d_16">
      <g>
       <use style="stroke:#000000;stroke-width:0.5;" x="90.0" xlink:href="#md7965d1ba0" y="175.5"/>
      </g>
     </g>
     <g id="line2d_17">
      <g>
       <use style="stroke:#000000;stroke-width:0.5;" x="343.636363636" xlink:href="#md9a1c1a7cd" y="175.5"/>
      </g>
     </g>
     <g id="text_6">
      <!-- 0 -->
      <g transform="translate(80.9609375 178.259375)scale(0.1 -0.1)">
       <use xlink:href="#BitstreamVeraSans-Roman-30"/>
      </g>
     </g>
    </g>
    <g id="ytick_3">
     <g id="line2d_18">
      <g>
       <use style="stroke:#000000;stroke-width:0.5;" x="90.0" xlink:href="#md7965d1ba0" y="90.9545454545"/>
      </g>
     </g>
     <g id="line2d_19">
      <g>
       <use style="stroke:#000000;stroke-width:0.5;" x="343.636363636" xlink:href="#md9a1c1a7cd" y="90.9545454545"/>
      </g>
     </g>
     <g id="text_7">
      <!-- 1 -->
      <g transform="translate(81.659375 93.7139204545)scale(0.1 -0.1)">
       <use xlink:href="#BitstreamVeraSans-Roman-31"/>
      </g>
     </g>
    </g>
    <g id="text_8">
     <!-- $f_{1}$ -->
     <defs>
      <path d="
M9.28125 0
L9.28125 3.51562
Q21.7812 3.51562 21.7812 6.6875
L21.7812 59.1875
Q16.6094 56.6875 8.6875 56.6875
L8.6875 60.2031
Q20.9531 60.2031 27.2031 66.6094
L28.6094 66.6094
Q28.9531 66.6094 29.2656 66.3281
Q29.5938 66.0625 29.5938 65.7188
L29.5938 6.6875
Q29.5938 3.51562 42.0938 3.51562
L42.0938 0
z
" id="Cmr10-31"/>
     </defs>
     <g transform="translate(63.040625 183.9)rotate(-90.0)scale(0.2 -0.2)">
      <use transform="translate(0.0 0.484375)" xlink:href="#Cmmi10-66"/>
      <use transform="translate(48.876953125 -25.025000000000006)scale(0.7)" xlink:href="#Cmr10-31"/>
     </g>
    </g>
   </g>
  </g>
  <g id="axes_2">
   <g id="line2d_20">
    <path clip-path="url(#pf6dab5210c)" d="
M419.727 48.6818
L394.364 48.6818
L394.364 302.318
L419.727 302.318" style="fill:none;stroke:#000000;stroke-linecap:square;stroke-width:3;"/>
   </g>
   <g id="line2d_21">
    <path clip-path="url(#pf6dab5210c)" d="
M622.636 48.6818
L648 48.6818
L648 302.318
L622.636 302.318" style="fill:none;stroke:#000000;stroke-linecap:square;stroke-width:3;"/>
   </g>
   <g id="matplotlib.axis_3">
    <g id="text_9">
     <!-- $i$ -->
     <defs>
      <path d="
M7.8125 7.17188
Q7.8125 9.03125 8.59375 11.0781
L16.7031 32.625
Q18.0156 36.2812 18.0156 38.625
Q18.0156 41.6094 15.8281 41.6094
Q11.8594 41.6094 9.29688 37.5312
Q6.73438 33.4531 5.51562 28.4219
Q5.32812 27.7812 4.6875 27.7812
L3.51562 27.7812
Q2.6875 27.7812 2.6875 28.7188
L2.6875 29
Q4.29688 34.9688 7.60938 39.5781
Q10.9375 44.1875 16.0156 44.1875
Q19.5781 44.1875 22.0469 41.8438
Q24.5156 39.5 24.5156 35.8906
Q24.5156 34.0312 23.6875 31.9844
L15.5781 10.5
Q14.2031 7.17188 14.2031 4.5
Q14.2031 1.51562 16.5 1.51562
Q20.4062 1.51562 23.0156 5.6875
Q25.6406 9.85938 26.7031 14.7031
Q26.9062 15.2812 27.4844 15.2812
L28.7188 15.2812
Q29.1094 15.2812 29.3438 15.0156
Q29.5938 14.75 29.5938 14.4062
Q29.5938 14.3125 29.5 14.1094
Q28.125 8.45312 24.7344 3.65625
Q21.3438 -1.125 16.3125 -1.125
Q12.7969 -1.125 10.2969 1.29688
Q7.8125 3.71875 7.8125 7.17188
M19.0938 60.5938
Q19.0938 62.7031 20.8438 64.4062
Q22.6094 66.1094 24.7031 66.1094
Q26.4219 66.1094 27.5156 65.0625
Q28.6094 64.0156 28.6094 62.4062
Q28.6094 60.1562 26.8281 58.4688
Q25.0469 56.7812 22.9062 56.7812
Q21.2969 56.7812 20.1875 57.875
Q19.0938 58.9844 19.0938 60.5938" id="Cmmi10-69"/>
     </defs>
     <g transform="translate(518.381818182 319.475681818)scale(0.16 -0.16)">
      <use transform="translate(0.0 0.890625)" xlink:href="#Cmmi10-69"/>
     </g>
    </g>
   </g>
   <g id="matplotlib.axis_4">
    <g id="text_10">
     <!-- $i^\prime$ -->
     <defs>
      <path d="
M3.51562 5.42188
Q2.875 5.60938 2.875 6.39062
L15.0938 51.8125
Q15.6719 53.6562 17.0781 54.7812
Q18.5 55.9062 20.3125 55.9062
Q22.6562 55.9062 24.4375 54.3594
Q26.2188 52.8281 26.2188 50.4844
Q26.2188 49.4688 25.6875 48.1875
L7.625 4.98438
Q7.28125 4.29688 6.6875 4.29688
Q6.15625 4.29688 5 4.78125
Q3.85938 5.28125 3.51562 5.42188" id="Cmsy10-30"/>
     </defs>
     <g transform="translate(386.036136364 181.82)rotate(-90.0)scale(0.16 -0.16)">
      <use transform="translate(0.0 0.3499999999999943)" xlink:href="#Cmmi10-69"/>
      <use transform="translate(34.423828125 42.865624999999994)scale(0.7)" xlink:href="#Cmsy10-30"/>
     </g>
    </g>
   </g>
   <g id="text_11">
    <!-- 1.0 -->
    <defs>
     <path d="
M10.6875 12.4062
L21 12.4062
L21 0
L10.6875 0
z
" id="BitstreamVeraSans-Roman-2e"/>
    </defs>
    <g transform="translate(463.384232955 124.772727273)scale(0.1 -0.1)">
     <use xlink:href="#BitstreamVeraSans-Roman-31"/>
     <use x="63.623046875" xlink:href="#BitstreamVeraSans-Roman-2e"/>
     <use x="95.41015625" xlink:href="#BitstreamVeraSans-Roman-30"/>
    </g>
   </g>
   <g id="text_12">
    <!-- 0.986207116744 -->
    <defs>
     <path d="
M10.9844 1.51562
L10.9844 10.5
Q14.7031 8.73438 18.5 7.8125
Q22.3125 6.89062 25.9844 6.89062
Q35.75 6.89062 40.8906 13.4531
Q46.0469 20.0156 46.7812 33.4062
Q43.9531 29.2031 39.5938 26.9531
Q35.25 24.7031 29.9844 24.7031
Q19.0469 24.7031 12.6719 31.3125
Q6.29688 37.9375 6.29688 49.4219
Q6.29688 60.6406 12.9375 67.4219
Q19.5781 74.2188 30.6094 74.2188
Q43.2656 74.2188 49.9219 64.5156
Q56.5938 54.8281 56.5938 36.375
Q56.5938 19.1406 48.4062 8.85938
Q40.2344 -1.42188 26.4219 -1.42188
Q22.7031 -1.42188 18.8906 -0.6875
Q15.0938 0.046875 10.9844 1.51562
M30.6094 32.4219
Q37.25 32.4219 41.125 36.9531
Q45.0156 41.5 45.0156 49.4219
Q45.0156 57.2812 41.125 61.8438
Q37.25 66.4062 30.6094 66.4062
Q23.9688 66.4062 20.0938 61.8438
Q16.2188 57.2812 16.2188 49.4219
Q16.2188 41.5 20.0938 36.9531
Q23.9688 32.4219 30.6094 32.4219" id="BitstreamVeraSans-Roman-39"/>
     <path d="
M31.7812 34.625
Q24.75 34.625 20.7188 30.8594
Q16.7031 27.0938 16.7031 20.5156
Q16.7031 13.9219 20.7188 10.1562
Q24.75 6.39062 31.7812 6.39062
Q38.8125 6.39062 42.8594 10.1719
Q46.9219 13.9688 46.9219 20.5156
Q46.9219 27.0938 42.8906 30.8594
Q38.875 34.625 31.7812 34.625
M21.9219 38.8125
Q15.5781 40.375 12.0312 44.7188
Q8.5 49.0781 8.5 55.3281
Q8.5 64.0625 14.7188 69.1406
Q20.9531 74.2188 31.7812 74.2188
Q42.6719 74.2188 48.875 69.1406
Q55.0781 64.0625 55.0781 55.3281
Q55.0781 49.0781 51.5312 44.7188
Q48 40.375 41.7031 38.8125
Q48.8281 37.1562 52.7969 32.3125
Q56.7812 27.4844 56.7812 20.5156
Q56.7812 9.90625 50.3125 4.23438
Q43.8438 -1.42188 31.7812 -1.42188
Q19.7344 -1.42188 13.25 4.23438
Q6.78125 9.90625 6.78125 20.5156
Q6.78125 27.4844 10.7812 32.3125
Q14.7969 37.1562 21.9219 38.8125
M18.3125 54.3906
Q18.3125 48.7344 21.8438 45.5625
Q25.3906 42.3906 31.7812 42.3906
Q38.1406 42.3906 41.7188 45.5625
Q45.3125 48.7344 45.3125 54.3906
Q45.3125 60.0625 41.7188 63.2344
Q38.1406 66.4062 31.7812 66.4062
Q25.3906 66.4062 21.8438 63.2344
Q18.3125 60.0625 18.3125 54.3906" id="BitstreamVeraSans-Roman-38"/>
     <path d="
M33.0156 40.375
Q26.375 40.375 22.4844 35.8281
Q18.6094 31.2969 18.6094 23.3906
Q18.6094 15.5312 22.4844 10.9531
Q26.375 6.39062 33.0156 6.39062
Q39.6562 6.39062 43.5312 10.9531
Q47.4062 15.5312 47.4062 23.3906
Q47.4062 31.2969 43.5312 35.8281
Q39.6562 40.375 33.0156 40.375
M52.5938 71.2969
L52.5938 62.3125
Q48.875 64.0625 45.0938 64.9844
Q41.3125 65.9219 37.5938 65.9219
Q27.8281 65.9219 22.6719 59.3281
Q17.5312 52.7344 16.7969 39.4062
Q19.6719 43.6562 24.0156 45.9219
Q28.375 48.1875 33.5938 48.1875
Q44.5781 48.1875 50.9531 41.5156
Q57.3281 34.8594 57.3281 23.3906
Q57.3281 12.1562 50.6875 5.35938
Q44.0469 -1.42188 33.0156 -1.42188
Q20.3594 -1.42188 13.6719 8.26562
Q6.98438 17.9688 6.98438 36.375
Q6.98438 53.6562 15.1875 63.9375
Q23.3906 74.2188 37.2031 74.2188
Q40.9219 74.2188 44.7031 73.4844
Q48.4844 72.75 52.5938 71.2969" id="BitstreamVeraSans-Roman-36"/>
     <path d="
M8.20312 72.9062
L55.0781 72.9062
L55.0781 68.7031
L28.6094 0
L18.3125 0
L43.2188 64.5938
L8.20312 64.5938
z
" id="BitstreamVeraSans-Roman-37"/>
     <path d="
M19.1875 8.29688
L53.6094 8.29688
L53.6094 0
L7.32812 0
L7.32812 8.29688
Q12.9375 14.1094 22.625 23.8906
Q32.3281 33.6875 34.8125 36.5312
Q39.5469 41.8438 41.4219 45.5312
Q43.3125 49.2188 43.3125 52.7812
Q43.3125 58.5938 39.2344 62.25
Q35.1562 65.9219 28.6094 65.9219
Q23.9688 65.9219 18.8125 64.3125
Q13.6719 62.7031 7.8125 59.4219
L7.8125 69.3906
Q13.7656 71.7812 18.9375 73
Q24.125 74.2188 28.4219 74.2188
Q39.75 74.2188 46.4844 68.5469
Q53.2188 62.8906 53.2188 53.4219
Q53.2188 48.9219 51.5312 44.8906
Q49.8594 40.875 45.4062 35.4062
Q44.1875 33.9844 37.6406 27.2188
Q31.1094 20.4531 19.1875 8.29688" id="BitstreamVeraSans-Roman-32"/>
     <path d="
M37.7969 64.3125
L12.8906 25.3906
L37.7969 25.3906
z

M35.2031 72.9062
L47.6094 72.9062
L47.6094 25.3906
L58.0156 25.3906
L58.0156 17.1875
L47.6094 17.1875
L47.6094 0
L37.7969 0
L37.7969 17.1875
L4.89062 17.1875
L4.89062 26.7031
z
" id="BitstreamVeraSans-Roman-34"/>
    </defs>
    <g transform="translate(529.573934659 124.772727273)scale(0.1 -0.1)">
     <use xlink:href="#BitstreamVeraSans-Roman-30"/>
     <use x="63.623046875" xlink:href="#BitstreamVeraSans-Roman-2e"/>
     <use x="95.41015625" xlink:href="#BitstreamVeraSans-Roman-39"/>
     <use x="159.033203125" xlink:href="#BitstreamVeraSans-Roman-38"/>
     <use x="222.65625" xlink:href="#BitstreamVeraSans-Roman-36"/>
     <use x="286.279296875" xlink:href="#BitstreamVeraSans-Roman-32"/>
     <use x="349.90234375" xlink:href="#BitstreamVeraSans-Roman-30"/>
     <use x="413.525390625" xlink:href="#BitstreamVeraSans-Roman-37"/>
     <use x="477.1484375" xlink:href="#BitstreamVeraSans-Roman-31"/>
     <use x="540.771484375" xlink:href="#BitstreamVeraSans-Roman-31"/>
     <use x="604.39453125" xlink:href="#BitstreamVeraSans-Roman-36"/>
     <use x="668.017578125" xlink:href="#BitstreamVeraSans-Roman-37"/>
     <use x="731.640625" xlink:href="#BitstreamVeraSans-Roman-34"/>
     <use x="795.263671875" xlink:href="#BitstreamVeraSans-Roman-34"/>
    </g>
   </g>
   <g id="text_13">
    <!-- 0.986207116744 -->
    <g transform="translate(428.119389205 226.227272727)scale(0.1 -0.1)">
     <use xlink:href="#BitstreamVeraSans-Roman-30"/>
     <use x="63.623046875" xlink:href="#BitstreamVeraSans-Roman-2e"/>
     <use x="95.41015625" xlink:href="#BitstreamVeraSans-Roman-39"/>
     <use x="159.033203125" xlink:href="#BitstreamVeraSans-Roman-38"/>
     <use x="222.65625" xlink:href="#BitstreamVeraSans-Roman-36"/>
     <use x="286.279296875" xlink:href="#BitstreamVeraSans-Roman-32"/>
     <use x="349.90234375" xlink:href="#BitstreamVeraSans-Roman-30"/>
     <use x="413.525390625" xlink:href="#BitstreamVeraSans-Roman-37"/>
     <use x="477.1484375" xlink:href="#BitstreamVeraSans-Roman-31"/>
     <use x="540.771484375" xlink:href="#BitstreamVeraSans-Roman-31"/>
     <use x="604.39453125" xlink:href="#BitstreamVeraSans-Roman-36"/>
     <use x="668.017578125" xlink:href="#BitstreamVeraSans-Roman-37"/>
     <use x="731.640625" xlink:href="#BitstreamVeraSans-Roman-34"/>
     <use x="795.263671875" xlink:href="#BitstreamVeraSans-Roman-34"/>
    </g>
   </g>
   <g id="text_14">
    <!-- 1.0 -->
    <g transform="translate(564.838778409 226.227272727)scale(0.1 -0.1)">
     <use xlink:href="#BitstreamVeraSans-Roman-31"/>
     <use x="63.623046875" xlink:href="#BitstreamVeraSans-Roman-2e"/>
     <use x="95.41015625" xlink:href="#BitstreamVeraSans-Roman-30"/>
    </g>
   </g>
  </g>
 </g>
 <defs>
  <clipPath id="p327466bd2e">
   <rect height="253.636363636" width="253.636363636" x="90.0" y="48.6818181818"/>
  </clipPath>
  <clipPath id="pf6dab5210c">
   <rect height="253.636363636" width="253.636363636" x="394.363636364" y="48.6818181818"/>
  </clipPath>
 </defs>
</svg>
